<?xml version="1.0" encoding="utf-8"?>
<svg xmlns="http://www.w3.org/2000/svg" style="display:none" aria-hidden="true">
    <symbol id="d4" viewBox="18.431 59.693 59.297 56.217">
        <path fill="currentColor" d="M 48.357,111.25 C 44.782,109.8388 37.036,106.8331 31.144,104.5706 L 20.430999999999997,100.457 L 34.971,81.47999999999999 C 42.967999999999996,71.04299999999999 49.858999999999995,62.14199999999999 50.285,61.70199999999999 C 50.85827,61.10850999999999 69.53699999999999,89.73499999999999 75.699,100.649 C 76.09882,101.35726 72.4068,104.1263 66.03229999999999,107.899 C 60.359899999999996,111.2562 55.5243,113.9609 55.287299999999995,113.9094 C 55.05029999999999,113.85790000000001 51.9312,112.66120000000001 48.356199999999994,111.25 L 48.357,111.25 M 70.076,104.4936 L 75.29499999999999,101.3537 L 63.65999999999999,82.6777 C 57.26059999999999,72.4057 51.89699999999999,64.1297 51.740999999999985,64.2857 C 51.58499999999998,64.44170000000001 52.324029999999986,74.9047 53.38359999999999,87.53670000000001 C 54.44316999999999,100.16870000000002 55.32069999999999,111.10870000000001 55.33359999999999,111.84870000000001 C 55.35712999999999,113.1937 56.87489999999999,112.43652 70.07659999999998,104.49430000000001 L 70.076,104.4936 M 64.91789999999999,100.253 C 64.55715999999998,98.7405 64.00779999999999,96.603 63.69709999999999,95.503 C 63.31183999999999,94.139 63.46119999999999,93.821 64.16676999999999,94.503 C 65.26146999999999,95.5611 66.93366999999999,103.003 66.07666999999998,103.003 C 65.80007999999998,103.003 65.27862999999998,101.7655 64.91786999999998,100.253 L 64.91789999999999,100.253 M 56.02159999999999,91.8285 C 55.708839999999995,90.63250000000001 55.91532999999999,88.94500000000001 56.48046999999999,88.0785 C 57.37150999999999,86.7123 57.43571999999999,86.7355 56.96386999999999,88.25303000000001 C 56.24407999999999,90.56803000000001 57.291869999999996,93.16133 58.61626999999999,92.34283 C 59.22924999999999,91.96399000000001 59.36912999999999,92.1744 58.95246999999999,92.84857000000001 C 57.84716999999999,94.63697 56.64676999999999,94.21917 56.02156999999999,91.82857000000001 L 56.02159999999999,91.8285 M 63.46399999999999,90.6319 C 62.74038999999999,89.76001000000001 62.63584999999999,88.4234 63.176869999999994,86.9609 C 63.79348999999999,85.294 64.24587,85.0141 64.82047,85.9438 C 65.28394,86.69371 65.06751,87.56389999999999 64.29945000000001,88.0386 C 63.216950000000004,88.70763000000001 63.21595000000001,89.1281 64.29375,90.4268 C 65.01326,91.29372 65.37695000000001,92.003 65.10192,92.003 C 64.82689,92.003 64.08982,91.38601 63.464020000000005,90.6319 L 63.46399999999999,90.6319 M 54.355599999999995,111.7529 C 54.35482999999999,111.6154 53.455459999999995,100.7029 52.35699999999999,87.5029 C 51.25853999999999,74.3029 50.359199999999994,63.3409 50.35839999999999,63.1429 C 50.357599999999984,62.9449 46.53199999999999,67.7543 41.856999999999985,73.8309 C 33.59079999999999,84.5749 32.127099999999984,86.8819 34.511499999999984,85.4079 C 35.232539999999986,84.96227 35.39432999999998,85.13397 34.94240999999998,85.8652 C 34.54441999999998,86.50915 33.823909999999984,86.79194 33.34120999999998,86.49362 C 32.17140999999998,85.77067000000001 22.09520999999998,99.14762 23.085209999999982,100.10962 C 24.516609999999982,101.50062000000001 54.36020999999998,112.61362000000001 54.35620999999998,111.75362000000001 L 54.355599999999995,111.7529 M 38.435599999999994,104.3203 C 38.3901,103.06150000000001 37.51044999999999,101.8691 36.35739999999999,101.5031 C 34.15659999999999,100.80459 34.53499999999999,99.6015 38.401999999999994,95.0029 L 40.5042,92.5029 L 40.05328,97.2529 C 39.75719,100.3719 39.989380000000004,102.0082 40.72952,102.0182 C 41.5413,102.02919999999999 41.54889,102.23907999999999 40.75663,102.7682 C 40.1516,103.17227999999999 39.39963,104.1779 39.08563,105.0029 C 38.696000000000005,106.0264 38.489560000000004,105.80962 38.43569,104.32029 L 38.435599999999994,104.3203 M 39.20269999999999,97.97240000000001 C 39.504819999999995,95.8999 39.346169999999994,95.76670000000001 37.95269999999999,96.92320000000001 C 36.06569999999999,98.48930000000001 35.80749999999999,101.35040000000001 37.60665999999999,100.7579 C 38.29415999999999,100.53148 39.012359999999994,99.278 39.202659999999995,97.97240000000001 L 39.20269999999999,97.97240000000001 M 36.93849999999999,90.75290000000001 C 36.68753999999999,89.51540000000001 36.22730999999999,87.293 35.91579999999999,85.81420000000001 C 35.60428999999999,84.33540000000002 35.80103999999999,82.84640000000002 36.35305999999999,82.50520000000002 C 36.97039999999999,82.12366000000002 37.356759999999994,83.69940000000001 37.356759999999994,86.59890000000001 L 37.356759999999994,91.31290000000001 L 41.66636,87.50290000000001 L 39.896559999999994,90.25290000000001 C 37.75346,93.58290000000001 37.52045999999999,93.62230000000001 36.938559999999995,90.75290000000001 L 36.93849999999999,90.75290000000001 M 44.85669999999999,89.4848 C 45.95669999999999,88.58916 47.75669999999999,87.4145 48.85669999999999,86.87450000000001 C 50.85669999999999,85.89261 50.85669999999999,85.89261 48.85669999999999,87.52105000000002 C 47.75669999999999,88.41669000000002 45.95669999999999,89.59135000000002 44.85669999999999,90.13135000000001 C 42.85669999999999,91.11324000000002 42.85669999999999,91.11324000000002 44.85669999999999,89.4848"/>
    </symbol>
    <symbol id="d6" viewBox="96.116 69.922 49.292 45.933">
        <path fill="currentColor" d="M 107.98669999999998,109.7548 L 98.11639999999998,105.6808 L 98.83601999999999,90.5918 C 99.23181,82.2928 99.62343999999999,75.43180000000001 99.70630999999999,75.3448 C 99.78917999999999,75.2578 104.86080999999999,74.45221000000001 110.97630999999998,73.5545 L 122.09630999999999,71.9223 L 143.40831,77.2625 L 143.13297,92.38250000000001 L 142.85762,107.50250000000001 L 130.35762,110.69200000000001 C 123.48262,112.4462 117.85762,113.8696 117.85762,113.85520000000001 C 117.85762,113.84080000000002 113.41602,111.99560000000001 107.98732,109.7549 L 107.98669999999998,109.7548 M 117.63399999999999,81.93780000000001 C 117.20665999999999,81.54249000000002 113.19169999999998,80.1114 108.71189999999999,78.75750000000001 L 100.56669999999998,76.2959 L 99.84509999999999,90.2329 C 99.44821999999999,97.898 99.51354999999998,104.5459 99.99025999999999,105.0049 C 100.46697,105.46390000000001 104.68205999999999,107.36590000000001 109.35705999999999,109.23060000000001 L 117.85705999999999,112.6209 L 118.13403999999998,97.6389 C 118.28637999999998,89.39880000000001 118.06133999999999,82.3339 117.63403999999998,81.93790000000001 L 117.63399999999999,81.93780000000001 M 105.94999999999999,100.8328 C 102.80199999999999,96.33840000000001 104.7297,86.9298 108.76719999999999,87.0818 C 110.19849999999998,87.13588 110.38419999999999,87.32962 109.35667999999998,87.69683 C 107.52927999999999,88.34995 105.35667999999998,90.97143000000001 105.35667999999998,92.52343 C 105.35667999999998,93.14948000000001 106.34986999999998,93.62593000000001 107.56377999999998,93.58233 C 111.69007999999998,93.43389 112.61757999999998,101.41593 108.62857999999999,102.74563 C 108.03167999999998,102.94459 106.82637999999999,102.08375000000001 105.94997999999998,100.83263000000001 L 105.94999999999999,100.8328 M 109.99589999999999,100.50083000000001 C 110.89141,98.16713000000001 109.48816,94.00303000000001 107.80619999999999,94.00303000000001 C 105.67159999999998,94.00303000000001 104.89589999999998,96.69633 106.20369999999998,99.56683000000001 C 107.45879999999998,102.32153000000001 109.13839999999999,102.73523000000002 109.99579999999999,100.50082 L 109.99589999999999,100.50083000000001 M 131.3379,109.41933 L 142.3569,106.83553 L 142.3569,77.96453000000001 L 140.1069,78.46077000000001 C 138.86939999999998,78.73370000000001 134.93189999999998,79.43205 131.3569,80.01267000000001 C 127.78190000000001,80.59329000000002 123.6194,81.31427000000001 122.1069,81.61497000000001 L 119.3569,82.16161000000001 L 119.3569,97.08261000000002 C 119.3569,105.28891000000002 119.57347,112.00361000000001 119.83816,112.00361000000001 C 120.10285,112.00361000000001 125.27786,110.84091000000001 131.33816000000002,109.41981000000001 L 131.3379,109.41933 M 129.0271,101.12393 C 131.1602,99.34253 131.1645,99.28303 129.2771,97.66693000000001 C 126.94909999999999,95.67363 126.80279999999999,92.69973 128.92808,90.57443 C 130.74148,88.76103 132.23948,88.61603000000001 134.35667999999998,90.04869000000001 C 135.48817999999997,90.81441000000001 135.22436,90.91768 133.28248,90.46909000000001 C 128.38927999999999,89.33869000000001 126.54548,95.29169 131.08738,97.55609000000001 C 132.77898,98.39947000000001 133.02428,98.93539000000001 132.12848,99.83119 C 131.23268,100.72699 131.53381,101.02649000000001 133.40668,101.10269000000001 L 135.85667999999998,101.20239000000001 L 133.35667999999998,102.00301 C 131.98167999999998,102.44336 129.95667999999998,102.83353000000001 128.85667999999998,102.87006000000001 C 126.92407999999999,102.93426000000001 126.92987999999998,102.87506 129.02712999999997,101.12386000000001 L 129.0271,101.12393"/>
    </symbol>
    <symbol id="d8" viewBox="162.529 72.782 45.759 41.418">
        <path fill="currentColor" d="M 169.9821,109.35123 C 168.2702,100.88803 164.27270000000001,76.75722999999999 164.542,76.51223 C 164.71481,76.35478 172.5765,75.90116 182.012,75.50423 L 199.168,74.78245000000001 L 200.3454,80.45395 C 200.99297,83.57335 201.26536000000002,86.79635 200.95069,87.61635000000001 C 200.63602,88.43635000000002 200.76388,88.86915 201.2348,88.57808000000001 C 201.70572,88.28701000000002 202.8582,91.97618000000001 203.79600000000002,96.77618000000001 C 204.73380000000003,101.57618000000001 205.72930000000002,106.46528 206.00850000000003,107.64118 C 206.56485000000004,109.98418000000001 208.91680000000002,109.63488000000001 179.20650000000003,111.62168000000001 L 170.55750000000003,112.20006000000001 L 169.98140000000004,109.35186 L 169.9821,109.35123 M 196.6761,109.42823 C 204.3777,108.88997 205.4057,108.60196 204.7815,107.15743 C 204.38834,106.24752000000001 204.03528,104.74863 203.99692,103.82643 C 203.95855999999998,102.90423 203.66141,102.31413 203.33658,102.51483 C 203.01175,102.71553 200.60528,98.57043 197.98888,93.30343 C 195.36228,88.01593000000001 192.85958,84.12473 192.40068,84.61503 C 191.94178,85.10533000000001 187.42338,90.45303 182.35568,96.50303000000001 C 172.76358000000002,107.95503000000001 170.54868000000002,110.41403000000001 171.75168000000002,108.28003000000001 C 172.13066000000003,107.60737000000002 176.69668000000001,102.01333000000001 181.89868,95.84903000000001 C 187.10068,89.68473000000002 191.35628000000003,84.35403000000001 191.35628000000003,84.00203000000002 C 191.35628000000003,83.65003000000003 186.80128000000002,82.28823000000001 181.23428,80.97403000000001 C 175.66728,79.65983000000001 171.56758000000002,78.43263000000002 172.12448,78.24693000000002 C 172.68138,78.06123000000002 177.57268,79.03576000000002 182.99448,80.41243000000001 L 192.85158,82.91543000000001 L 195.06828000000002,80.20913000000002 C 198.77548000000002,75.68313000000002 198.00298,74.99933000000001 192.01118000000002,77.50283000000002 C 187.53378000000004,79.37363000000002 185.78178000000003,79.33623000000001 189.85698000000002,77.45686000000002 L 192.85698000000002,76.07336000000002 L 189.60308000000003,76.37539000000002 C 187.81338000000002,76.54151000000003 186.16358000000002,76.86315000000002 185.93678000000003,77.09015000000002 C 185.70998000000003,77.31715000000003 180.96638000000002,77.46011000000003 175.39578000000003,77.40784000000002 L 165.26678000000004,77.31281000000003 L 165.77884000000003,79.90781000000003 C 166.06047000000004,81.33511000000003 167.21644000000003,87.90281000000003 168.34764000000004,94.50281000000003 C 169.47884000000005,101.10281000000002 170.63714000000004,107.55381000000003 170.92174000000003,108.83881000000002 C 171.49536000000003,111.42921000000003 168.89094000000003,111.36961000000002 196.67774000000003,109.42763000000002 L 196.6761,109.42823 M 197.28233,106.35303 C 198.09066,104.67683000000001 197.98427,104.07443 196.79964,103.61993000000001 C 195.94457,103.29181000000001 195.03124,103.68533000000001 194.71094000000002,104.51997000000001 C 194.01845000000003,106.32457000000001 189.97534000000002,106.47927000000001 188.61704000000003,104.75311000000002 C 187.35954000000004,103.15511000000002 189.37041000000002,98.16011000000002 191.04324000000003,98.72621000000002 C 191.82862000000003,98.99201000000002 191.56230000000002,99.79651000000003 190.25677000000002,101.10211000000002 C 189.17107000000001,102.18781000000003 188.55077000000003,103.50971000000003 188.87827000000001,104.03961000000002 C 189.78816,105.51181000000003 193.15387,105.18631000000002 194.07697000000002,103.53685000000003 C 194.59684000000001,102.60789000000003 195.71447,102.28415000000003 197.12667000000002,102.65348000000003 C 199.76697000000001,103.34394000000003 199.87537000000003,103.97238000000003 197.80061,106.56198000000003 C 196.29351,108.44308000000004 196.27751,108.43668000000004 197.2823,106.35307000000003 L 197.28233,106.35303 M 174.06433,95.37903 C 173.67446,94.98916 173.35548,94.07023 173.35548,93.33683 C 173.35548,92.60343000000002 172.45548,91.10353 171.35548,90.00353000000001 C 168.82068,87.46873000000001 168.83488,86.35253000000002 171.41938,84.96933000000001 C 174.12768,83.51983000000001 176.66718,85.44604000000001 175.77087999999998,88.26993000000002 C 175.40322999999998,89.42833000000002 175.54061,90.00713000000002 176.10097999999996,89.66073000000002 C 176.62887999999995,89.33447000000001 177.91457999999997,89.70176000000002 178.95807999999997,90.47693000000001 C 180.46947999999998,91.59963 180.63127999999998,92.25413 179.75326999999996,93.69493000000001 C 178.59346999999997,95.59813000000001 175.26786999999996,96.58263000000001 174.06426999999996,95.37903000000001 L 174.06433,95.37903 M 179.03253,93.40263 C 179.73263,91.57823 177.70043,89.93393 175.69613,90.70303 C 174.95876,90.98599 174.35543,92.06933 174.35543,93.11053 C 174.35543,95.47323 178.14713,95.71003 179.03253,93.40262 L 179.03253,93.40263 M 174.78123000000002,88.33633 C 175.13311000000002,87.41936 174.97532,86.22343000000001 174.43060000000003,85.67873 C 173.08530000000002,84.33343 170.30170000000004,86.69993 171.02190000000002,88.57673 C 171.76776,90.52043 173.99790000000002,90.37783 174.78130000000002,88.3364 L 174.78123000000002,88.33633"/>
    </symbol>
    <symbol id="d10" viewBox="60.497 11.111 44.118 44.892">
        <path fill="currentColor" d="M 73.71305000000004,53.26058000000002 C 64.62135000000004,52.93387000000002 64.56235000000004,52.91501000000002 63.33005000000004,49.94038000000002 C 62.41291000000004,47.72618000000002 62.276650000000046,42.86308000000002 62.805750000000046,31.22638000000002 C 63.198920000000044,22.57908000000002 63.821150000000046,15.20938000000002 64.18855000000005,14.849380000000021 C 64.55595000000005,14.489380000000022 72.28275000000005,13.87689000000002 81.35955000000004,13.488880000000021 C 96.74955000000004,12.831040000000021 98.02255000000004,12.913240000000021 100.23855000000005,14.707680000000021 L 102.61485000000005,16.63188000000002 L 101.87734000000005,35.31788000000002 L 101.13982000000004,54.00388000000002 L 91.99822000000005,53.796340000000015 C 86.97032000000004,53.68219000000001 78.74222000000005,53.44094000000001 73.71322000000005,53.26022000000002 L 73.71305000000004,53.26058000000002 M 99.70705000000004,52.24688000000002 C 100.63137000000003,50.751280000000015 101.62705000000004,17.00488000000002 100.74565000000004,17.045880000000018 C 100.25692000000004,17.06858000000002 97.83625000000004,18.081080000000018 95.36625000000004,19.295880000000018 C 91.77825000000004,21.06068000000002 90.32415000000003,22.610280000000017 88.13305000000004,27.00468000000002 C 86.62465000000005,30.029680000000017 85.38305000000004,32.973880000000015 85.37385000000003,33.547280000000015 C 85.36465000000003,34.120680000000014 88.50705000000004,38.31318000000002 92.35705000000003,42.863880000000016 C 96.20705000000002,47.414580000000015 99.35705000000003,51.40788000000002 99.35705000000003,51.737980000000015 C 99.35705000000003,52.06808000000001 99.18937000000003,52.150520000000014 98.98443000000003,51.921360000000014 C 98.77949000000004,51.692200000000014 95.57823000000003,47.904660000000014 91.87063000000003,43.504660000000015 C 88.16303000000003,39.10466000000002 84.75983000000004,35.36436000000002 84.30813000000003,35.192960000000014 C 83.85643000000003,35.02156000000001 80.19513000000003,36.422660000000015 76.17193000000003,38.306660000000015 C 72.14873000000003,40.190660000000015 67.61953000000003,42.23376000000002 66.10693000000003,42.84696000000002 C 64.21263000000003,43.614950000000015 63.356930000000034,44.68696000000002 63.356930000000034,46.29216000000002 C 63.356930000000034,50.90776000000002 65.22623000000003,51.924160000000015 74.35693000000003,52.27296000000002 C 92.84393000000003,52.97916000000002 99.25893000000003,52.97270000000002 99.70693000000003,52.24742000000002 L 99.70705000000004,52.24688000000002 M 83.35705000000004,49.93098000000002 C 83.35705000000004,49.19267000000002 82.41607000000005,49.02356000000002 80.70195000000004,49.45379000000002 C 79.03845000000004,49.871290000000016 77.76585000000004,49.66553000000002 77.29445000000004,48.90288000000002 C 76.23375000000004,47.18658000000002 77.27534000000004,45.00418000000002 79.15515000000003,45.00418000000002 C 80.47275000000003,45.00418000000002 80.42925000000004,45.23086000000002 78.89667000000003,46.35158000000002 C 76.52497000000002,48.08578000000002 78.51462000000002,49.52538000000002 81.25567000000002,48.05848000000002 C 82.67617000000003,47.29823000000002 83.31617000000003,47.35279000000002 83.64567000000002,48.26224000000002 C 83.99950000000003,49.23878000000002 84.57347000000003,49.22129000000002 86.33097000000002,48.18043000000002 C 87.56037000000002,47.452330000000025 88.26917000000002,47.33741000000002 87.90597000000002,47.92505000000002 C 86.78927000000003,49.73195000000002 83.35697000000002,51.24545000000002 83.35697000000002,49.93105000000002 L 83.35705000000004,49.93098000000002 M 94.54205000000005,34.92898000000002 L 94.72703000000004,28.50468000000002 L 95.09793000000005,33.85908000000002 C 95.46036000000005,39.09118000000002 95.51323000000005,39.17328000000002 97.41293000000005,37.45408000000002 C 100.28193000000005,34.857680000000016 99.77953000000005,36.25908000000002 96.85705000000004,39.00468000000002 L 94.35705000000004,41.35328000000002 L 94.54203000000004,34.92898000000002 L 94.54205000000005,34.92898000000002 M 72.35705000000004,39.32308000000002 C 74.28205000000004,38.54459000000002 77.37265000000005,36.91698000000002 79.22515000000004,35.70618000000002 C 82.86425000000004,33.32758000000002 90.74815000000004,21.99218000000002 89.57415000000005,20.826180000000015 C 88.83606000000005,20.093310000000017 65.23315000000005,14.764180000000014 64.82915000000004,15.239080000000016 C 64.70472000000004,15.385050000000016 64.28095000000005,21.486080000000015 63.88742000000004,28.797080000000015 L 63.17192000000004,42.08908000000002 L 66.01492000000005,41.41360000000002 C 67.57852000000004,41.04208000000002 70.43292000000005,40.10120000000002 72.35792000000005,39.32270000000002 L 72.35705000000004,39.32308000000002 M 70.16025000000005,26.805080000000018 C 68.25405000000005,23.86738000000002 68.89715000000005,22.004880000000018 71.81795000000005,22.004880000000018 C 74.57895000000005,22.004880000000018 76.65015000000005,24.23768000000002 76.17945000000006,26.70688000000002 C 75.65905000000006,29.43648000000002 71.90755000000006,29.49768000000002 70.16035000000007,26.805080000000018 L 70.16025000000005,26.805080000000018 M 75.35705000000004,25.97352000000002 C 75.35705000000004,23.723720000000018 73.18225000000004,22.47432000000002 70.83445000000005,23.37522000000002 C 69.56635000000004,23.86183000000002 69.52305000000004,24.29769000000002 70.57500000000005,25.98222000000002 C 72.24090000000004,28.64972000000002 75.35710000000005,28.64402000000002 75.35710000000005,25.97322000000002 L 75.35705000000004,25.97352000000002"/>
    </symbol>
    <symbol id="d12" viewBox="109.718 7.068 54.796 48.937">
        <path fill="currentColor" d="M 125.51705000000004,52.15252000000002 C 121.25595000000004,50.535420000000016 117.93725000000003,46.58362000000002 119.10545000000005,44.517820000000015 C 119.42038000000005,43.960920000000016 119.30472000000005,43.84394000000002 118.84845000000004,44.25787000000001 C 118.39218000000004,44.671800000000005 116.60125000000004,42.50927000000001 114.86865000000004,39.45227000000001 L 111.71845000000005,33.89407000000001 L 116.66675000000005,24.199670000000012 C 119.38835000000005,18.86777000000001 122.76625000000006,13.267670000000011 124.17335000000006,11.755670000000011 C 126.61395000000006,9.13227000000001 127.14895000000006,9.009170000000012 135.79435000000007,9.082470000000011 C 149.90235000000007,9.202100000000012 151.58635000000007,10.021980000000012 157.50635000000005,19.653470000000013 L 162.51415000000006,27.801570000000012 L 160.81505000000007,31.153470000000013 C 159.88055000000006,32.997070000000015 156.64785000000006,38.892870000000016 153.63115000000008,44.25547000000002 L 148.14635000000007,54.00547000000002 L 139.00185000000008,53.90271000000001 C 133.1631500000001,53.837100000000014 128.28785000000008,53.20446000000001 125.51685000000008,52.15271000000001 L 125.51705000000004,52.15252000000002 M 150.19905000000003,48.74702000000002 C 151.48715000000004,46.41402000000002 154.57065000000003,40.78332000000002 157.05115000000004,36.23402000000002 L 161.56115000000003,27.96302000000002 L 157.45925000000003,21.234020000000022 C 155.20325000000003,17.533020000000022 152.99205000000003,13.940520000000022 152.54545000000002,13.250620000000023 C 151.90489000000002,12.260930000000023 150.51615,12.240820000000022 145.96305,13.155220000000023 C 140.24605,14.303320000000022 140.19735,14.342920000000023 140.72185000000002,17.409520000000022 C 141.01303000000001,19.112020000000022 141.54036000000002,22.99992000000002 141.89365,26.049320000000023 L 142.53606000000002,31.593720000000022 L 148.88986000000003,35.022620000000025 C 152.38446000000002,36.908520000000024 155.08726000000001,38.60792000000002 154.89606000000003,38.79912000000002 C 154.70486000000005,38.990320000000025 151.46786000000003,37.47562000000002 147.70276000000004,35.433120000000024 L 140.85696000000004,31.719520000000024 L 134.23136000000005,35.895920000000025 C 127.73726000000005,39.989420000000024 127.59206000000005,40.175220000000024 126.91816000000006,45.255720000000025 C 125.98951000000005,52.25622000000003 127.14206000000006,53.007220000000025 138.79816000000005,52.99662000000002 L 147.85706000000005,52.98842000000002 L 150.19916000000003,48.74662000000002 L 150.19905000000003,48.74702000000002 M 136.98805000000002,48.21778000000002 C 136.68205,47.72267000000002 136.88597000000001,45.67228000000002 137.44121,43.66138000000002 C 138.21567000000002,40.85648000000002 138.96361000000002,40.00878000000002 140.65371000000002,40.020580000000024 C 143.86761,40.042920000000024 145.78701,41.51168000000003 144.73481,43.143480000000025 C 144.25184000000002,43.892470000000024 143.85669000000001,45.405280000000026 143.85669000000001,46.50528000000003 C 143.85669000000001,48.018080000000026 143.08790000000002,48.57988000000003 140.70049,48.811680000000024 C 138.96459000000002,48.980180000000026 137.29399,48.71295000000002 136.98799,48.21783000000002 L 136.98805000000002,48.21778000000002 M 143.13055000000003,46.82668000000002 C 142.91449000000003,46.17847000000002 141.96415000000002,45.16598000000002 141.01875000000004,44.57668000000002 C 139.71395000000004,43.763410000000015 139.06935000000004,43.86667000000002 138.34355000000005,45.005240000000015 C 136.78995000000006,47.44244000000001 137.18325000000004,48.005240000000015 140.44005000000004,48.005240000000015 C 142.36255000000006,48.005240000000015 143.37545000000003,47.561540000000015 143.13055000000003,46.82664000000001 L 143.13055000000003,46.82668000000002 M 143.85674000000003,42.00528000000002 C 143.51682000000002,41.45528000000002 142.36524000000003,41.00528000000002 141.29774000000003,41.00528000000002 C 140.23024000000004,41.00528000000002 139.35674000000003,41.45528000000002 139.35674000000003,42.00528000000002 C 139.35674000000003,42.55528000000002 140.50834000000003,43.00528000000002 141.91574000000003,43.00528000000002 C 143.36714000000003,43.00528000000002 144.20724000000004,42.57244000000002 143.85674000000003,42.00528000000002 M 149.01174000000003,30.17628000000002 C 147.13644000000002,28.10408000000002 146.93774000000002,26.19098000000002 148.37067000000002,24.00498000000002 C 149.07957000000002,22.923580000000022 149.19076,23.35777000000002 148.76915000000002,25.560980000000022 C 148.07410000000002,29.193080000000023 150.19395000000003,31.508780000000023 153.30875000000003,30.52018000000002 C 155.95295000000004,29.68096000000002 155.89765000000003,28.22178000000002 153.10674000000003,25.18798000000002 L 150.85674000000003,22.742080000000023 L 153.11794000000003,24.121080000000024 C 156.26994000000002,26.043280000000024 157.03264000000004,29.037680000000023 154.78814000000003,30.678780000000025 C 152.34204000000003,32.46748000000002 150.97784000000001,32.348780000000026 149.01174000000003,30.176240000000025 L 149.01174000000003,30.17628000000002 M 149.49709000000004,19.858280000000022 C 147.64929000000004,19.326530000000023 146.32459000000003,18.704280000000022 146.55329000000003,18.475580000000022 C 147.05828000000002,17.970600000000022 154.35669000000004,19.913080000000022 154.35669000000004,20.552480000000024 C 154.35669000000004,21.141720000000024 153.56287000000003,21.028320000000026 149.49699000000004,19.858280000000025 L 149.49709000000004,19.858280000000022 M 136.66409000000004,33.451280000000025 L 141.47109000000003,30.505380000000024 L 140.88729000000004,26.005380000000024 C 140.56620000000004,23.530380000000022 140.05098000000004,19.817880000000024 139.74239000000003,17.755380000000024 L 139.18125000000003,14.005380000000024 L 122.79525000000004,14.005380000000024 L 119.12225000000004,21.428280000000022 L 115.44935000000004,28.85118000000002 L 121.61755000000004,33.90268000000002 C 127.13105000000003,38.41808000000002 128.00185000000005,38.818480000000015 129.82125000000005,37.67568000000002 C 130.94075000000004,36.97250000000002 134.01985000000005,35.07148000000002 136.66375000000005,33.45128000000002 L 136.66409000000004,33.451280000000025 M 124.54609000000005,28.456680000000027 C 121.53359000000005,22.256080000000026 121.86929000000005,21.388180000000027 124.97291000000006,27.353180000000027 C 126.36021000000005,30.019480000000026 127.32411000000006,32.372080000000025 127.11491000000005,32.58128000000003 C 126.90571000000004,32.79048000000003 125.74981000000005,30.93438000000003 124.54601000000005,28.456680000000027 L 124.54609000000005,28.456680000000027 M 129.88269000000005,29.841180000000026 C 130.27562000000006,28.556480000000025 131.22409000000005,25.973780000000026 131.99049000000005,24.101780000000026 C 133.75869000000006,19.782480000000028 133.04109000000005,19.097580000000026 129.04299000000006,21.288580000000024 L 125.85759000000006,23.034280000000024 L 128.21839000000006,21.019880000000022 C 132.76879000000005,17.136980000000023 135.15229000000005,18.859180000000023 132.85099000000005,24.367080000000023 C 130.71589000000006,29.477080000000022 130.96579000000006,30.283580000000022 134.10759000000004,28.422980000000024 C 136.69519000000005,26.890680000000025 136.73949000000005,26.893580000000025 134.85759000000004,28.473180000000024 C 133.75759000000005,29.396500000000024 132.02749000000006,30.607580000000024 131.01299000000006,31.164480000000026 C 129.39499000000006,32.05261000000002 129.25619000000006,31.890020000000025 129.88279000000006,29.841180000000026 L 129.88269000000005,29.841180000000026"/>
    </symbol>
    <symbol id="d20" viewBox="169.315 0.014 61.977 56.894">
        <path fill="currentColor" d="M 194.53623000000002,51.65833000000001 L 182.21723000000003,48.503530000000005 L 171.31523000000004,22.503530000000005 L 176.58543000000003,17.701230000000006 C 179.48403000000002,15.059930000000005 184.60273000000004,10.449930000000005 187.96043000000003,7.456230000000007 L 194.06513000000004,2.0139300000000064 L 205.39713000000003,3.5085300000000066 C 211.62953000000005,4.330550000000007 217.05813000000003,5.003130000000007 217.46113000000003,5.003130000000007 C 217.86413000000002,5.003130000000007 220.69053000000002,11.372630000000008 223.74263000000002,19.157130000000006 L 229.29183000000003,33.311130000000006 L 219.21283000000003,44.15713000000001 C 213.66923000000003,50.12213000000001 208.62083,54.96013000000001 207.99483000000004,54.90713000000001 C 207.36883000000006,54.85413000000001 201.31253000000004,53.39223000000001 194.53683000000004,51.65713000000001 L 194.53623000000002,51.65833000000001 M 209.55323,52.53491 C 209.83594000000002,52.817620000000005 213.87663,48.87621 218.53253,43.776210000000006 C 226.96993,34.534110000000005 229.74653,31.026210000000006 227.54723,32.38521000000001 C 226.93287,32.76491000000001 224.16333,31.92686000000001 221.39273,30.522910000000007 C 218.62213,29.118960000000005 216.32113,28.090310000000006 216.27933,28.23711000000001 L 212.86513,40.50411000000001 C 211.02903,47.10411000000001 209.49842999999998,51.829110000000014 209.46373,51.00411000000001 C 209.42903,50.17911000000001 210.74893,44.55411000000001 212.39673,38.50411000000001 L 215.39273,27.50411000000001 L 212.56943,25.00411000000001 C 211.01663000000002,23.62911000000001 205.51443,19.46661000000001 200.34243,15.754110000000011 C 195.17043,12.041610000000013 191.26773,9.004110000000011 191.66993000000002,9.004110000000011 C 192.07213000000004,9.004110000000011 197.37993000000003,12.64011000000001 203.46493,17.08411000000001 C 209.54993,21.52811000000001 214.76393000000002,24.92861000000001 215.05193,24.64071000000001 C 215.8071,23.88554000000001 217.57733,6.892710000000008 216.96463,6.279710000000009 C 215.93373,5.248810000000009 191.98563000000001,7.945410000000009 190.81963,9.223710000000008 C 190.17752,9.927740000000007 189.11742999999998,15.003810000000009 188.46383,20.503710000000005 C 187.81023000000002,26.003610000000002 187.03733,31.719710000000006 186.74633,33.20671 L 186.21719,35.91001 L 199.51519,31.44971 C 206.82929,28.99651 213.18819,27.11451 213.64719,27.26731 C 214.10619,27.420109999999998 208.37759,29.542109999999997 200.91818999999998,31.982809999999997 C 193.45878999999996,34.42350999999999 187.35519,36.72781 187.35519,37.103609999999996 C 187.35519,37.479409999999994 191.84689,41.143809999999995 197.33669,45.24691 C 202.82649,49.350010000000005 206.98899,53.09641 206.58669,53.57221 C 206.18439,54.04801 206.57159000000001,53.893679999999996 207.44717,53.229079999999996 C 208.32274999999998,52.564479999999996 209.27047,52.25203 209.55317,52.53474 L 209.55323,52.53491 M 199.49023000000003,41.29891000000001 C 198.22123000000002,38.66171000000001 197.76173000000003,37.066410000000005 198.46913000000004,37.753910000000005 C 199.17653000000004,38.441410000000005 200.56523000000004,39.003910000000005 201.55523000000002,39.003910000000005 C 203.42363000000003,39.003910000000005 203.79033,41.04571000000001 202.50607000000002,44.29891000000001 C 201.93823000000003,45.737410000000004 201.33917000000002,45.141490000000005 199.49027,41.29891000000001 L 199.49023000000003,41.29891000000001 M 201.95943000000003,40.274710000000006 C 200.94293000000002,39.258210000000005 200.10423000000003,40.7886 200.93823000000003,42.138110000000005 C 201.56826000000004,43.15751 201.80381000000003,43.15831000000001 202.14253000000002,42.14211 C 202.37413,41.44733 202.29174000000003,40.60701 201.95945000000003,40.27471 L 201.95943000000003,40.274710000000006 M 206.46633000000003,39.892770000000006 C 205.85026000000002,38.12547000000001 205.52120000000002,36.50457000000001 205.73509,36.290670000000006 C 205.94898,36.07677 206.62804000000003,37.347770000000004 207.24409,39.11497000000001 C 207.86013999999997,40.88217000000001 208.18922,42.503170000000004 207.97533,42.71707000000001 C 207.76144000000002,42.93097000000001 207.08238,41.660070000000005 206.46633000000003,39.892770000000006 M 216.75733000000002,39.25741000000001 C 218.21673,37.53351000000001 218.97273,37.27121000000001 220.00733000000002,38.129810000000006 C 220.74885000000003,38.74522 221.35553000000002,39.508610000000004 221.35553000000002,39.82631000000001 C 221.35553000000002,40.14401000000001 220.82167,39.87001000000001 220.16913000000002,39.21752000000001 C 219.25401000000002,38.30239000000001 218.51103000000003,38.42813000000001 216.91913000000002,39.767520000000005 C 214.86073000000002,41.49942000000001 214.86033000000003,41.49812000000001 216.75727000000003,39.257400000000004 L 216.75733000000002,39.25741000000001 M 193.35533000000004,31.069010000000006 C 193.35533000000004,30.554810000000007 193.80855000000003,28.942010000000007 194.36253000000005,27.485110000000006 C 195.59213000000005,24.251110000000004 194.74256000000005,22.437710000000006 192.76633000000004,24.077810000000007 C 191.91349000000005,24.785610000000005 191.35533000000004,24.847140000000007 191.35533000000004,24.23336000000001 C 191.35533000000004,22.799260000000007 193.79093000000003,22.037060000000007 195.33123000000003,22.98906000000001 C 196.34723000000002,23.61699000000001 196.38153000000003,24.489860000000007 195.49055000000004,27.04576000000001 C 194.02155000000005,31.259660000000007 194.01995000000005,31.253760000000007 196.28955000000005,30.03916000000001 C 199.24355000000006,28.45826000000001 200.20235000000005,28.87646000000001 197.35525000000004,30.50398000000001 C 194.39755000000005,32.19478000000001 193.35525000000004,32.34198000000001 193.35525000000004,31.06908000000001 L 193.35533000000004,31.069010000000006 M 198.84013000000004,24.974510000000006 C 196.23613000000003,19.938910000000007 199.84733000000006,17.772710000000004 202.95053000000004,22.508910000000007 C 204.27323000000004,24.527610000000006 204.35103000000004,25.30411000000001 203.35114000000004,26.508910000000007 C 201.54094000000003,28.690110000000008 200.59514000000004,28.368410000000008 198.84014000000005,24.974510000000006 L 198.84013000000004,24.974510000000006 M 202.84253000000004,26.024510000000006 C 203.71632000000005,24.610710000000008 201.54503000000003,21.00381000000001 199.82013000000003,21.00381000000001 C 198.05403000000004,21.00381000000001 198.03593000000004,21.20882000000001 199.51583000000002,24.456710000000008 C 200.73743000000002,27.13791000000001 201.83473000000004,27.655010000000008 202.84253,26.024410000000007 L 202.84253000000004,26.024510000000006 M 206.32783000000003,15.253510000000006 L 203.85533000000004,13.503510000000006 L 207.77713000000003,13.003510000000006 C 211.94213000000002,12.472500000000005 213.67823000000004,10.485710000000006 210.66063000000003,9.703510000000005 C 209.09333000000004,9.297240000000006 209.07823000000002,9.220230000000004 210.54627000000002,9.119530000000005 C 211.47631,9.055730000000004 212.52757000000003,9.473240000000004 212.88237,10.047330000000004 C 213.89927,11.692630000000005 211.36377000000002,14.003530000000005 208.54177,14.003530000000005 C 206.06847000000002,14.003530000000005 206.04517,14.058030000000006 207.91421000000003,15.471730000000004 C 210.66181000000003,17.549930000000003 209.30961000000002,17.363930000000003 206.32781000000003,15.253540000000005 L 206.32783000000003,15.253510000000006 M 205.35532000000003,52.625510000000006 C 205.35532000000003,51.96510000000001 186.44332000000003,38.003510000000006 185.54932000000002,38.003510000000006 C 185.07822000000002,38.003510000000006 184.22582000000003,40.04421000000001 183.65502000000004,42.53831 C 182.49902000000003,47.59001000000001 182.93107000000003,48.13891 189.10582000000002,49.46461 C 191.19622,49.91342 192.35582000000002,49.77723 192.35582000000002,49.08292 C 192.35582000000002,48.48922 191.56832000000003,47.96792 190.60582000000002,47.92452 C 189.60392000000002,47.87932 189.37922000000003,47.63362 190.08006000000003,47.34977 C 190.75339000000002,47.07708 192.31606000000002,47.56261 193.55256000000003,48.42877 C 195.10356000000002,49.51507 195.34416000000002,50.03327 194.32832000000002,50.09947 C 193.51844000000003,50.152269999999994 195.10581000000002,50.77381 197.85582000000002,51.480669999999996 C 203.35612000000003,52.89447 205.35582000000002,53.19967 205.35582000000002,52.62526999999999 L 205.35532000000003,52.625510000000006 M 187.40932000000004,21.245510000000007 C 188.34610000000004,14.237710000000007 188.96582000000004,8.340510000000007 188.78652000000002,8.139510000000007 C 188.60722,7.938510000000006 184.85902000000002,11.069710000000008 180.45712000000003,15.096210000000006 C 174.96562000000003,20.119510000000005 172.74952000000002,22.773410000000005 173.39602000000002,23.55241000000001 C 173.91426,24.17685000000001 174.00467000000003,25.056010000000008 173.59694000000002,25.50601000000001 C 173.18921,25.956010000000013 173.34244,26.04739000000001 173.93745,25.70892000000001 C 174.53246000000001,25.37045000000001 177.20535,27.31292000000001 179.87715,30.02552000000001 C 182.54895,32.73812000000001 184.95355,34.739120000000014 185.22055,34.47212000000001 C 185.48755,34.20512000000001 186.47245,28.25302000000001 187.40925000000001,21.24512000000001 L 187.40932000000004,21.245510000000007 M 179.60572000000005,24.921110000000006 C 176.60712000000004,23.784810000000007 176.75612000000004,21.598310000000005 179.93066000000005,20.151910000000008 C 182.91726000000006,18.791110000000007 184.35576000000003,19.372580000000006 184.35576000000003,21.940710000000006 C 184.35576000000003,24.596710000000005 182.24486000000005,25.921210000000006 179.60576000000003,24.921210000000006 L 179.60572000000005,24.921110000000006 M 183.28542000000004,21.695010000000007 C 183.21762000000004,19.582610000000006 183.18430000000004,19.575810000000008 182.35571000000004,21.504030000000007 C 181.17291000000006,24.25653000000001 181.17291000000006,25.23503000000001 182.35571000000004,24.504030000000007 C 182.90571000000006,24.164110000000008 183.32408000000004,22.900030000000008 183.28542000000004,21.695030000000006 L 183.28542000000004,21.695010000000007 M 180.35572000000005,22.445010000000007 C 180.35572000000005,21.587550000000007 179.90572000000006,21.164110000000008 179.35572000000005,21.504030000000007 C 178.80572000000004,21.843950000000007 178.35572000000005,22.545530000000007 178.35572000000005,23.06303000000001 C 178.35572000000005,23.58053000000001 178.80572000000004,24.004020000000008 179.35572000000005,24.004020000000008 C 179.90572000000006,24.004020000000008 180.35572000000005,23.302460000000007 180.35572000000005,22.445020000000007 L 180.35572000000005,22.445010000000007"/>
    </symbol>
    <symbol id="d100" viewBox="8.391 13.504 40.886 42.500">
        <path fill="currentColor" d="M 11.66572000000005,52.75401000000001 C 11.22076000000005,52.06651000000001 10.70704000000005,43.74161000000001 10.52412000000005,34.25401000000001 C 10.21794000000005,18.37501000000001 10.33487000000005,16.94901000000001 11.99582000000005,16.312010000000008 C 12.98819000000005,15.931200000000008 20.50862000000005,15.593560000000007 28.707820000000048,15.561700000000007 L 43.61582000000005,15.503800000000007 L 45.61182000000005,18.160400000000006 C 47.49472000000005,20.666400000000007 47.566320000000054,21.757500000000007 46.87592000000005,37.41040000000001 L 46.14398000000005,54.00340000000001 L 29.308980000000048,54.00340000000001 C 16.939980000000048,54.00340000000001 12.259980000000049,53.67186000000002 11.66498000000005,52.75340000000001 L 11.66572000000005,52.75401000000001 M 28.35672000000005,51.05051000000001 C 29.69002000000005,50.98194000000001 29.69002000000005,50.86566000000001 28.35672000000005,50.00401000000001 C 26.38082000000005,48.72711000000001 23.067520000000048,48.72711000000001 23.85672000000005,50.00401000000001 C 24.19664000000005,50.554010000000005 24.04634000000005,51.00401000000001 23.52272000000005,51.00401000000001 C 22.99910000000005,51.00401000000001 22.34702000000005,50.42105000000001 22.073520000000048,49.70851000000001 C 21.42258000000005,48.01221000000001 25.032820000000047,47.70271000000001 28.622820000000047,49.14711000000001 C 30.813020000000048,50.02828000000001 31.151920000000047,50.545710000000014 30.250420000000048,51.632010000000015 C 29.30259000000005,52.774110000000015 30.37923000000005,53.004010000000015 36.675220000000046,53.004010000000015 C 40.835120000000046,53.004010000000015 44.45662000000004,52.65140000000002 44.722920000000045,52.22044000000002 C 44.989220000000046,51.78948000000002 45.53302000000004,44.312840000000016 45.931220000000046,35.605440000000016 C 46.62883000000004,20.352440000000016 46.585900000000045,19.794440000000016 44.75602000000005,20.316440000000014 C 43.71142000000005,20.614790000000013 40.60672000000005,21.168390000000013 37.85672000000005,21.546640000000014 C 32.939420000000055,22.223050000000015 32.807120000000054,22.333910000000014 29.856720000000053,28.250740000000015 L 26.856720000000053,34.267040000000016 L 43.910720000000055,51.50304000000001 L 35.862820000000056,43.75304000000001 C 31.436520000000055,39.49054000000001 27.030020000000057,36.00304000000001 26.07072000000006,36.00304000000001 C 24.023620000000058,36.00304000000001 14.048720000000058,41.463940000000015 12.344720000000057,43.51804000000001 C 11.614140000000058,44.398330000000016 11.413700000000057,46.37824000000001 11.814820000000058,48.752440000000014 L 12.459960000000057,52.57104000000001 L 19.658560000000058,51.84887000000001 C 23.617760000000057,51.45168000000001 27.532160000000058,51.09199000000001 28.357160000000057,51.04957000000001 L 28.35672000000005,51.05051000000001 M 29.85672000000005,47.51951000000001 C 28.20672000000005,46.79237000000001 26.631720000000048,46.33171000000001 26.35672000000005,46.49581000000001 C 26.08172000000005,46.65991000000002 25.19642000000005,46.08071000000001 24.389520000000047,45.20871000000001 C 23.08412000000005,43.79821000000001 23.125720000000047,43.70141000000001 24.76627000000005,44.33092000000001 C 25.780470000000047,44.720100000000016 27.15187000000005,44.58899000000001 27.813970000000047,44.039560000000016 C 28.666200000000046,43.332270000000015 29.851770000000048,43.91119000000002 31.87437000000005,46.02236000000001 C 34.963970000000046,49.24726000000001 34.52187000000005,49.57536000000001 29.85687000000005,47.51956000000001 L 29.85672000000005,47.51951000000001 M 30.365850000000048,45.51501000000001 C 29.68619000000005,44.69607000000001 28.648450000000047,44.32371000000001 28.059750000000047,44.68751000000001 C 27.411930000000048,45.08788000000001 27.752710000000047,45.64791000000001 28.923050000000046,46.10621000000001 C 31.682750000000045,47.18691000000001 31.735450000000046,47.16531000000001 30.365850000000044,45.515000000000015 L 30.365850000000048,45.51501000000001 M 35.91525000000005,40.068610000000014 C 34.68865000000005,38.71321000000001 34.32175000000005,37.27961000000001 34.75725000000005,35.54431000000001 C 35.53073000000005,32.46251000000001 36.76185000000005,32.31661000000001 38.69565000000005,35.07746000000001 C 39.52404000000005,36.260160000000006 40.41465000000005,36.71946000000001 40.76865000000005,36.14656000000001 C 41.11005000000005,35.594170000000005 40.93203000000005,34.85956000000001 40.37306000000005,34.51406000000001 C 38.495360000000055,33.35356000000001 39.22596000000005,30.003960000000006 41.356750000000055,30.003960000000006 C 42.47585000000006,30.003960000000006 43.356750000000055,30.670620000000007 43.356750000000055,31.517560000000007 C 43.356750000000055,32.35002000000001 43.90798000000005,33.91376 44.581750000000056,34.992560000000005 C 46.225150000000056,37.62406000000001 44.24609000000006,39.98686000000001 41.97635000000005,38.10316 C 40.77065000000005,37.102560000000004 40.453250000000054,37.28215 40.18395000000005,39.11726 C 39.744530000000054,42.11216 38.09695000000005,42.47936 35.91525000000005,40.06859 L 35.91525000000005,40.068610000000014 M 39.35675000000005,39.438240000000015 C 39.35675000000005,37.054240000000014 37.37775000000005,33.872940000000014 36.30655000000005,34.535040000000016 C 34.97865000000005,35.355750000000015 35.12165000000005,38.36904000000002 36.55673000000005,39.804040000000015 C 38.20903000000005,41.45634000000001 39.35673000000005,41.306440000000016 39.35673000000005,39.43830000000001 L 39.35675000000005,39.438240000000015 M 44.35675000000005,36.503940000000014 C 44.35675000000005,35.67894000000001 43.93331000000005,35.003940000000014 43.415770000000045,35.003940000000014 C 42.15477000000004,35.003940000000014 41.25167000000005,36.56554000000001 42.05057000000004,37.364440000000016 C 43.17677000000004,38.49064000000001 44.35677000000004,38.05033000000002 44.35677000000004,36.503920000000015 L 44.35675000000005,36.503940000000014 M 42.35675000000005,32.503940000000014 C 42.35675000000005,31.678940000000015 41.906750000000045,31.003940000000014 41.35675000000005,31.003940000000014 C 40.80675000000005,31.003940000000014 40.35675000000005,31.678940000000015 40.35675000000005,32.503940000000014 C 40.35675000000005,33.32894000000002 40.80675000000005,34.003940000000014 41.35675000000005,34.003940000000014 C 41.906750000000045,34.003940000000014 42.35675000000005,33.32894000000002 42.35675000000005,32.503940000000014 M 19.820750000000046,37.561340000000015 C 24.687550000000044,34.83964000000002 26.540050000000047,33.08374000000001 28.666850000000046,29.176040000000015 C 30.146450000000048,26.457540000000016 31.357050000000047,23.968240000000016 31.357050000000047,23.644340000000014 C 31.357050000000047,22.472540000000013 25.548450000000045,20.092040000000015 18.962050000000048,18.564440000000012 C 15.261250000000047,17.70618000000001 12.036250000000049,17.00394000000001 11.795450000000049,17.00394000000001 C 11.554650000000048,17.00394000000001 11.35751000000005,22.403940000000013 11.35751000000005,29.00394000000001 C 11.35751000000005,37.40424000000001 11.70365000000005,41.003940000000014 12.51141000000005,41.003940000000014 C 13.146050000000049,41.003940000000014 16.43551000000005,39.454740000000015 19.82121000000005,37.561340000000015 L 19.820750000000046,37.561340000000015 M 17.257050000000046,32.370640000000016 C 17.862040000000047,32.077300000000015 18.357050000000047,31.144640000000017 18.357050000000047,30.298140000000018 C 18.357050000000047,29.064040000000016 18.068500000000046,28.998540000000016 16.900850000000048,29.967560000000017 C 15.261050000000049,31.328460000000018 13.357050000000047,30.567870000000017 13.357050000000047,28.551860000000016 C 13.357050000000047,26.312460000000016 16.665750000000045,25.705560000000016 18.10955000000005,27.680120000000016 C 19.67125000000005,29.815920000000016 19.376950000000047,32.22922000000002 17.50705000000005,32.621020000000016 C 16.76456000000005,32.77661000000001 16.65206000000005,32.66392000000002 17.25705000000005,32.37056000000002 L 17.257050000000046,32.370640000000016 M 17.169550000000047,28.066440000000014 C 17.419550000000047,27.316440000000014 17.044550000000047,26.941440000000014 16.294550000000047,27.191440000000014 C 15.572670000000047,27.432060000000014 14.785150000000048,28.219540000000013 14.544550000000047,28.941440000000014 C 14.294550000000047,29.691440000000014 14.669550000000047,30.066440000000014 15.419550000000047,29.816440000000014 C 16.141420000000046,29.575810000000015 16.928950000000047,28.788340000000016 17.169550000000047,28.066440000000014 M 19.331850000000045,25.956940000000014 C 18.475470000000044,24.356740000000013 18.465010000000046,23.495940000000015 19.291850000000046,22.669040000000013 C 20.815750000000047,21.145140000000012 23.856950000000047,23.097210000000015 23.856950000000047,25.599240000000012 C 23.856950000000047,28.284640000000014 20.710650000000047,28.533340000000013 19.33175000000005,25.95692000000001 L 19.331850000000045,25.956940000000014 M 23.357050000000044,25.472580000000015 C 23.357050000000044,23.959480000000013 20.720550000000046,22.307180000000017 19.790350000000043,23.237280000000016 C 19.52612000000004,23.501510000000017 19.59368000000004,24.457080000000015 19.940470000000044,25.360780000000016 C 20.736080000000044,27.434080000000016 23.357070000000043,27.519780000000015 23.357070000000043,25.472520000000017 L 23.357050000000044,25.472580000000015"/>
    </symbol>
</svg>
