<?xml version="1.0"?>
<svg xmlns="http://www.w3.org/2000/svg" xmlns:xlink="http://www.w3.org/1999/xlink" version="1.1" x="0px" y="0px" xml:space="preserve">
    <g>
        <g>
            <g>
                <g>
                    <path fill="currentColor" d="M243.628,413.472c-18.831,0-34.15-15.319-34.15-34.15V306.87c0-18.83,15.32-34.15,34.15-34.15      c2.542,0,5.072,0.282,7.54,0.839c0.078,0.003,0.157,0.007,0.235,0.009c0.942,0.027,1.863,0.04,2.781,0.04      c15.753,0.001,31.361-3.965,45.136-11.467c4.853-2.64,10.924-0.85,13.565,4s0.851,10.923-3.999,13.564      c-16.701,9.095-35.615,13.902-54.699,13.902c-0.001,0-0.002,0-0.003,0c-1.109,0-2.222-0.016-3.336-0.048      c-0.354-0.01-0.724-0.028-1.094-0.049l-0.443-0.022c-0.71-0.029-1.415-0.134-2.103-0.313c-1.161-0.302-2.366-0.455-3.58-0.455      c-7.803,0-14.15,6.348-14.15,14.15v72.451c0,7.803,6.348,14.15,14.15,14.15s14.15-6.348,14.15-14.15v-48.021      c0-5.182,3.958-9.505,9.12-9.961c0.931-0.082,1.859-0.174,2.785-0.273c5.473-0.591,10.423,3.377,11.016,8.868      c0.341,3.155-0.825,6.126-2.921,8.195v41.191C277.778,398.152,262.459,413.472,243.628,413.472z M318.706,327.638      c-3.766,0-7.372-2.137-9.069-5.774c-2.335-5.005-0.17-10.955,4.835-13.29c49.361-23.027,80.993-71.128,82.55-125.53      c0.04-1.407,0.061-2.811,0.061-4.209c0-39.807-16.728-78.083-45.895-105.013c-4.058-3.746-4.31-10.073-0.563-14.131      c3.748-4.059,10.074-4.309,14.132-0.563c33.254,30.705,52.326,74.336,52.326,119.707c0,1.581-0.023,3.19-0.068,4.78      c-0.881,30.79-10.374,60.523-27.453,85.988c-16.609,24.765-39.651,44.509-66.634,57.096      C321.56,327.336,320.121,327.638,318.706,327.638z M340.775,247.653c-1.934,0-3.887-0.559-5.606-1.727      c-4.57-3.102-5.761-9.32-2.659-13.89c9.936-14.64,15.538-31.765,16.202-49.524c0.044-1.174,0.066-2.359,0.066-3.523      c0-50.739-41.247-93.198-91.946-94.647c-23.296-0.669-46.024,7.299-63.768,22.293c-4.219,3.564-10.528,3.035-14.092-1.183      c-3.565-4.219-3.035-10.528,1.183-14.093c20.646-17.447,46.896-27.057,73.915-27.058c1.106,0,2.217,0.017,3.331,0.048      c61.416,1.756,111.378,53.184,111.378,114.64c0,1.413-0.027,2.85-0.08,4.271c-0.805,21.511-7.596,42.262-19.64,60.008      C347.124,246.118,343.978,247.653,340.775,247.653z M129.091,182.146c-0.329,0-0.659-0.005-0.99-0.015      c-18.604-0.531-33.183-15.513-33.183-34.106c0-2.755,0.338-5.521,1.004-8.225c8.581-34.81,28.875-66.303,57.143-88.677      C181.683,28.474,217.545,16,254.045,16c1.897,0,3.829,0.033,5.739,0.1c21.143,0.732,41.559,5.406,60.681,13.894      c5.048,2.24,7.324,8.148,5.084,13.196c-2.24,5.049-8.149,7.326-13.197,5.084c-16.77-7.442-34.688-11.543-53.259-12.186      c-1.682-0.059-3.38-0.088-5.048-0.088c-65.907,0-122.944,44.652-138.704,108.588c-0.281,1.138-0.423,2.294-0.423,3.438      c0,7.566,6.174,13.898,13.763,14.115c0.143,0.004,0.276,0.006,0.41,0.006c6.511,0,12.174-4.49,13.77-10.919      c1.357-5.465,3.135-10.873,5.285-16.072c2.11-5.104,7.957-7.53,13.062-5.42c5.104,2.11,7.531,7.958,5.42,13.062      c-1.772,4.286-3.238,8.744-4.356,13.249C158.456,171.414,144.812,182.146,129.091,182.146z"/>
                </g>
                <g>
                    <path fill="currentColor" d="M245.458,496c-18.725,0-33.958-15.233-33.958-33.958s15.234-33.959,33.958-33.959c18.725,0,33.958,15.234,33.958,33.959      S264.184,496,245.458,496z M245.458,448.083c-7.697,0-13.958,6.263-13.958,13.959S237.762,476,245.458,476      s13.958-6.262,13.958-13.958S253.155,448.083,245.458,448.083z"/>
                </g>
            </g>
        </g>
    </g>
</svg>
